<svg xmlns="http://www.w3.org/2000/svg" viewBox="0 0 104.77 83.58"><defs><style>.cls-1{fill:#a8afb2;}.cls-2{fill:#0796d5;}</style></defs><g id="Capa_2" data-name="Capa 2"><g id="Capa_1-2" data-name="Capa 1"><path class="cls-1" d="M18.43,43.7C19,38.58,22.27,31,30.47,31c9,0,11,7.94,11,12.67ZM85.31,21.79V54.12c-2.51-4.34-7.19-7.68-14.59-10.22-7.67-2.69-10.11-4.22-10.11-7.3s2.69-5,7.43-5a29.2,29.2,0,0,1,9.7,1.88l6.2-10.58.68-1.31A41.49,41.49,0,0,0,67.4,18c-7.61,0-13.86,2.14-18.27,5.7-4.29-3.49-10.05-5.63-17.51-5.63C9.86,18.11,0,35.64,0,51.51c0,19.59,12.16,32,33.41,32h1.43l8.73-13.69h-7.3c-9.09,0-17.2-4.74-17.71-12.8H51.65l1.52-2.36a45.07,45.07,0,0,0,6.67,2.81c7.17,2.43,9.09,4,9.09,7.29s-2.42,5.11-8.28,5.12H55.87l-3,5.14-5,8.49,0,.07H60.61c12.71,0,21-4.32,24.7-11v11l9.33-6.65,10.13,6.65V41.18c0-10.1-19.46-19.39-19.46-19.39"/><polygon class="cls-2" points="85.31 0 85.31 7.41 94.09 10.5 85.31 13.58 85.31 21 104.64 14.2 104.77 14.25 104.77 6.75 104.64 6.79 85.31 0"/></g></g></svg>