<svg id="svg" version="1.1" xmlns="http://www.w3.org/2000/svg" xmlns:xlink="http://www.w3.org/1999/xlink" width="400" height="249.73544973544975" viewBox="0, 0, 400,249.73544973544975"><g id="svgg"><path id="path0" d="M190.256 166.930 C 184.661 167.939,183.524 168.248,179.388 169.892 C 176.542 171.023,173.046 173.433,170.658 175.911 C 167.398 179.295,165.622 182.785,164.119 188.757 C 162.758 194.166,163.824 204.116,166.326 209.369 C 172.060 221.406,187.578 227.152,207.814 224.729 C 212.287 224.193,217.105 223.297,219.113 222.628 C 219.457 222.514,220.395 222.211,221.197 221.956 C 222.000 221.701,222.744 221.322,222.850 221.115 C 223.157 220.512,223.698 207.108,223.426 206.837 C 223.151 206.562,222.313 206.746,218.738 207.871 C 209.569 210.754,202.765 211.936,198.535 211.382 C 190.595 210.340,186.351 207.334,183.716 200.883 C 182.114 196.959,183.464 189.385,186.447 185.566 C 190.167 180.804,200.756 178.804,209.994 181.117 C 210.543 181.255,211.893 181.591,212.992 181.864 C 216.554 182.749,218.935 183.498,219.488 183.906 C 219.625 184.007,220.176 184.172,220.711 184.272 L 221.684 184.454 221.503 180.417 C 221.404 178.197,221.221 175.680,221.097 174.824 C 220.973 173.967,220.862 172.648,220.849 171.893 C 220.811 169.538,220.471 169.282,216.561 168.662 C 215.776 168.537,215.030 168.371,214.903 168.293 C 214.633 168.126,212.604 167.804,207.620 167.138 C 203.689 166.613,192.743 166.482,190.256 166.930 M52.397 167.549 C 52.313 167.633,51.535 167.950,50.669 168.254 C 49.106 168.801,44.712 170.868,44.472 171.169 C 44.403 171.255,44.094 171.404,43.785 171.501 C 43.476 171.597,43.223 171.781,43.223 171.909 C 43.223 172.038,43.111 172.142,42.974 172.142 C 41.240 172.142,33.562 179.655,29.981 184.855 C 28.154 187.509,25.366 193.552,24.798 196.091 C 24.659 196.711,32.565 205.003,33.025 204.719 C 33.137 204.649,33.233 202.885,33.237 200.797 C 33.251 194.261,34.317 189.915,36.833 186.139 C 44.311 174.920,60.318 173.996,69.098 184.277 C 70.891 186.377,71.727 187.841,72.980 191.076 C 73.651 192.807,73.954 195.496,73.957 199.750 C 73.963 205.854,73.654 205.784,78.633 200.811 L 82.823 196.625 82.009 194.242 C 77.960 182.399,68.704 172.897,56.715 168.274 C 56.096 168.036,55.332 167.740,55.016 167.618 C 54.362 167.364,52.627 167.318,52.397 167.549 M93.754 167.561 C 93.288 167.749,93.321 206.856,93.790 209.869 C 95.495 220.833,103.706 225.116,123.016 225.111 C 127.489 225.110,130.574 224.990,132.260 224.751 C 133.652 224.555,135.184 224.339,135.665 224.272 C 137.172 224.063,140.635 223.147,141.786 222.654 C 147.958 220.010,150.765 216.450,152.022 209.676 C 152.414 207.562,152.620 169.347,152.246 167.955 L 152.095 167.389 142.818 167.455 L 133.542 167.520 133.396 184.884 C 133.244 203.160,133.267 202.796,132.106 205.372 C 130.264 209.457,118.430 210.628,114.911 207.074 C 112.473 204.611,112.430 204.230,112.426 184.935 C 112.424 175.906,112.355 168.267,112.272 167.958 L 112.122 167.395 103.094 167.415 C 98.129 167.426,93.926 167.492,93.754 167.561 M234.978 167.955 C 234.902 168.265,234.872 181.056,234.910 196.377 L 234.978 224.235 260.028 224.299 L 285.079 224.362 285.013 216.304 L 284.947 208.245 270.156 208.120 C 260.377 208.037,255.277 207.907,255.104 207.734 C 254.929 207.558,254.823 200.953,254.780 187.497 L 254.716 167.520 244.915 167.455 L 235.114 167.390 234.978 167.955 M296.443 168.207 C 296.363 168.654,296.330 181.443,296.369 196.627 L 296.440 224.235 305.559 224.235 L 314.678 224.235 314.743 208.682 C 314.778 200.128,314.891 193.132,314.993 193.134 C 315.095 193.137,315.430 193.671,315.738 194.321 C 316.046 194.971,317.304 197.414,318.534 199.750 C 319.764 202.086,321.262 204.953,321.862 206.121 C 322.953 208.245,325.024 212.209,327.868 217.614 C 328.699 219.194,329.817 221.359,330.352 222.423 L 331.324 224.360 335.911 224.360 L 340.498 224.360 341.226 222.923 C 341.627 222.133,342.837 219.800,343.917 217.739 C 345.877 213.995,348.021 209.878,350.095 205.871 C 351.773 202.630,355.266 195.898,355.960 194.567 C 356.300 193.915,356.679 193.444,356.803 193.520 C 356.931 193.599,357.027 200.214,357.027 209.009 L 357.027 224.360 366.147 224.360 L 375.268 224.360 375.204 195.940 L 375.141 167.520 365.420 167.455 C 355.367 167.387,354.778 167.440,354.778 168.410 C 354.778 168.513,353.036 171.477,350.906 174.996 C 348.776 178.515,347.033 181.504,347.033 181.640 C 347.033 181.775,346.946 181.886,346.840 181.886 C 346.734 181.886,346.425 182.308,346.153 182.823 C 345.882 183.339,345.395 184.154,345.072 184.635 C 344.749 185.116,344.384 185.734,344.260 186.009 C 344.137 186.284,343.927 186.677,343.794 186.883 C 343.207 187.790,338.118 196.289,337.959 196.627 C 337.863 196.833,337.561 197.339,337.290 197.751 C 337.019 198.164,336.686 198.754,336.550 199.063 C 336.088 200.112,335.726 199.824,334.113 197.127 C 333.414 195.959,332.608 194.610,332.320 194.129 C 332.032 193.648,331.717 193.086,331.620 192.879 C 331.523 192.673,330.081 190.256,328.416 187.508 C 326.750 184.760,325.310 182.342,325.214 182.136 C 325.119 181.930,324.819 181.424,324.547 181.012 C 324.276 180.600,323.968 180.080,323.863 179.858 C 323.758 179.636,322.042 176.743,320.050 173.431 L 316.427 167.407 306.507 167.401 L 296.587 167.395 296.443 168.207 M49.719 182.603 C 44.676 184.099,41.114 187.482,39.167 192.626 C 38.685 193.896,38.636 194.645,38.537 202.220 L 38.429 210.436 40.800 212.776 C 43.812 215.749,43.723 215.769,43.723 212.107 C 43.723 208.995,44.048 207.741,45.079 206.886 C 45.596 206.456,45.574 206.006,44.984 204.906 C 40.186 195.972,49.980 186.562,58.814 191.616 C 63.127 194.084,64.951 199.968,62.758 204.335 C 61.787 206.269,61.787 206.088,62.764 207.535 C 63.539 208.683,63.569 208.828,63.668 211.795 C 63.796 215.643,63.844 215.654,66.912 212.526 L 69.207 210.186 69.202 203.969 C 69.196 196.563,68.852 193.766,67.609 191.010 C 64.618 184.381,56.533 180.581,49.719 182.603 M51.431 195.382 C 48.246 197.064,47.526 200.880,49.873 203.630 L 50.986 204.934 50.915 207.199 L 50.843 209.463 50.063 209.665 C 48.860 209.976,48.798 210.199,48.618 214.828 L 48.449 219.162 50.880 221.636 C 53.831 224.640,53.580 224.633,56.407 221.794 L 58.713 219.478 58.709 214.986 C 58.705 209.976,58.707 209.984,57.401 209.739 L 56.465 209.563 56.465 207.218 L 56.465 204.873 57.450 203.827 C 61.412 199.621,56.486 192.711,51.431 195.382 " stroke="none" fill="#fbf9f9" fill-rule="evenodd"></path><path id="path1" d="M0.000 124.922 L 0.000 249.844 200.000 249.844 L 400.000 249.844 400.000 124.922 L 400.000 0.000 200.000 0.000 L 0.000 0.000 0.000 124.922 M207.620 167.138 C 212.604 167.804,214.633 168.126,214.903 168.293 C 215.030 168.371,215.776 168.537,216.561 168.662 C 220.471 169.282,220.811 169.538,220.849 171.893 C 220.862 172.648,220.973 173.967,221.097 174.824 C 221.221 175.680,221.404 178.197,221.503 180.417 L 221.684 184.454 220.711 184.272 C 220.176 184.172,219.625 184.007,219.488 183.906 C 218.935 183.498,216.554 182.749,212.992 181.864 C 211.893 181.591,210.543 181.255,209.994 181.117 C 200.756 178.804,190.167 180.804,186.447 185.566 C 183.464 189.385,182.114 196.959,183.716 200.883 C 186.351 207.334,190.595 210.340,198.535 211.382 C 202.765 211.936,209.569 210.754,218.738 207.871 C 222.313 206.746,223.151 206.562,223.426 206.837 C 223.698 207.108,223.157 220.512,222.850 221.115 C 222.744 221.322,222.000 221.701,221.197 221.956 C 220.395 222.211,219.457 222.514,219.113 222.628 C 212.830 224.722,197.371 225.848,190.412 224.719 C 172.094 221.748,163.355 212.021,163.703 194.993 C 163.760 192.181,163.942 189.461,164.119 188.757 C 165.622 182.785,167.398 179.295,170.658 175.911 C 173.046 173.433,176.542 171.023,179.388 169.892 C 183.524 168.248,184.661 167.939,190.256 166.930 C 192.743 166.482,203.689 166.613,207.620 167.138 M55.016 167.618 C 55.332 167.740,56.096 168.036,56.715 168.274 C 68.704 172.897,77.960 182.399,82.009 194.242 L 82.823 196.625 78.633 200.811 C 73.654 205.784,73.963 205.854,73.957 199.750 C 73.954 195.496,73.651 192.807,72.980 191.076 C 71.727 187.841,70.891 186.377,69.098 184.277 C 60.318 173.996,44.311 174.920,36.833 186.139 C 34.317 189.915,33.251 194.261,33.237 200.797 C 33.233 202.885,33.137 204.649,33.025 204.719 C 32.565 205.003,24.659 196.711,24.798 196.091 C 25.366 193.552,28.154 187.509,29.981 184.855 C 33.562 179.655,41.240 172.142,42.974 172.142 C 43.111 172.142,43.223 172.038,43.223 171.909 C 43.223 171.781,43.476 171.597,43.785 171.501 C 44.094 171.404,44.403 171.255,44.472 171.169 C 44.712 170.868,49.106 168.801,50.669 168.254 C 51.535 167.950,52.313 167.633,52.397 167.549 C 52.627 167.318,54.362 167.364,55.016 167.618 M112.272 167.958 C 112.355 168.267,112.424 175.906,112.426 184.935 C 112.430 204.230,112.473 204.611,114.911 207.074 C 118.430 210.628,130.264 209.457,132.106 205.372 C 133.267 202.796,133.244 203.160,133.396 184.884 L 133.542 167.520 142.818 167.455 L 152.095 167.389 152.246 167.955 C 152.620 169.347,152.414 207.562,152.022 209.676 C 150.765 216.450,147.958 220.010,141.786 222.654 C 140.635 223.147,137.172 224.063,135.665 224.272 C 135.184 224.339,133.652 224.555,132.260 224.751 C 130.574 224.990,127.489 225.110,123.016 225.111 C 103.706 225.116,95.495 220.833,93.790 209.869 C 93.321 206.856,93.288 167.749,93.754 167.561 C 93.926 167.492,98.129 167.426,103.094 167.415 L 112.122 167.395 112.272 167.958 M254.780 187.497 C 254.823 200.953,254.929 207.558,255.104 207.734 C 255.277 207.907,260.377 208.037,270.156 208.120 L 284.947 208.245 285.013 216.304 L 285.079 224.362 260.028 224.299 L 234.978 224.235 234.910 196.377 C 234.872 181.056,234.902 168.265,234.978 167.955 L 235.114 167.390 244.915 167.455 L 254.716 167.520 254.780 187.497 M320.050 173.431 C 322.042 176.743,323.758 179.636,323.863 179.858 C 323.968 180.080,324.276 180.600,324.547 181.012 C 324.819 181.424,325.119 181.930,325.214 182.136 C 325.310 182.342,326.750 184.760,328.416 187.508 C 330.081 190.256,331.523 192.673,331.620 192.879 C 331.717 193.086,332.032 193.648,332.320 194.129 C 332.608 194.610,333.414 195.959,334.113 197.127 C 335.726 199.824,336.088 200.112,336.550 199.063 C 336.686 198.754,337.019 198.164,337.290 197.751 C 337.561 197.339,337.863 196.833,337.959 196.627 C 338.118 196.289,343.207 187.790,343.794 186.883 C 343.927 186.677,344.137 186.284,344.260 186.009 C 344.384 185.734,344.749 185.116,345.072 184.635 C 345.395 184.154,345.882 183.339,346.153 182.823 C 346.425 182.308,346.734 181.886,346.840 181.886 C 346.946 181.886,347.033 181.775,347.033 181.640 C 347.033 181.504,348.776 178.515,350.906 174.996 C 353.036 171.477,354.778 168.513,354.778 168.410 C 354.778 167.440,355.367 167.387,365.420 167.455 L 375.141 167.520 375.204 195.940 L 375.268 224.360 366.147 224.360 L 357.027 224.360 357.027 209.009 C 357.027 200.214,356.931 193.599,356.803 193.520 C 356.679 193.444,356.300 193.915,355.960 194.567 C 355.266 195.898,351.773 202.630,350.095 205.871 C 348.021 209.878,345.877 213.995,343.917 217.739 C 342.837 219.800,341.627 222.133,341.226 222.923 L 340.498 224.360 335.911 224.360 L 331.324 224.360 330.352 222.423 C 329.817 221.359,328.699 219.194,327.868 217.614 C 325.024 212.209,322.953 208.245,321.862 206.121 C 321.262 204.953,319.764 202.086,318.534 199.750 C 317.304 197.414,316.046 194.971,315.738 194.321 C 315.430 193.671,315.095 193.137,314.993 193.134 C 314.891 193.132,314.778 200.128,314.743 208.682 L 314.678 224.235 305.559 224.235 L 296.440 224.235 296.369 196.627 C 296.330 181.443,296.363 168.654,296.443 168.207 L 296.587 167.395 306.507 167.401 L 316.427 167.407 320.050 173.431 M57.812 182.664 C 66.372 185.208,69.191 190.481,69.202 203.969 L 69.207 210.186 66.912 212.526 C 63.844 215.654,63.796 215.643,63.668 211.795 C 63.569 208.828,63.539 208.683,62.764 207.535 C 61.787 206.088,61.787 206.269,62.758 204.335 C 64.951 199.968,63.127 194.084,58.814 191.616 C 49.980 186.562,40.186 195.972,44.984 204.906 C 45.574 206.006,45.596 206.456,45.079 206.886 C 44.048 207.741,43.723 208.995,43.723 212.107 C 43.723 215.769,43.812 215.749,40.800 212.776 L 38.429 210.436 38.537 202.220 C 38.636 194.645,38.685 193.896,39.167 192.626 C 42.185 184.655,50.165 180.391,57.812 182.664 M55.913 195.372 C 59.230 197.140,59.961 201.161,57.450 203.827 L 56.465 204.873 56.465 207.218 L 56.465 209.563 57.401 209.739 C 58.707 209.984,58.705 209.976,58.709 214.986 L 58.713 219.478 56.407 221.794 C 53.580 224.633,53.831 224.640,50.880 221.636 L 48.449 219.162 48.618 214.828 C 48.798 210.199,48.860 209.976,50.063 209.665 L 50.843 209.463 50.915 207.199 L 50.986 204.934 49.873 203.630 C 46.176 199.299,50.974 192.740,55.913 195.372 " stroke="none" fill="#b41434" fill-rule="evenodd"></path></g></svg>